<?xml version="1.0" standalone="no"?>
<!DOCTYPE svg PUBLIC "-//W3C//DTD SVG 20010904//EN"
 "http://www.w3.org/TR/2001/REC-SVG-20010904/DTD/svg10.dtd">
<svg version="1.0" xmlns="http://www.w3.org/2000/svg"
 width="700.000000pt" height="700.000000pt" viewBox="0 0 700.000000 700.000000"
 preserveAspectRatio="xMidYMid meet">
<metadata>
Created by potrace 1.11, written by Peter Selinger 2001-2013
</metadata>
<g transform="translate(0.000000,700.000000) scale(0.100000,-0.100000)"
fill="#000000" stroke="none">
<path d="M3329 6296 c-2 -2 -40 -6 -84 -10 -245 -19 -512 -81 -749 -172 -242
-93 -564 -277 -735 -419 -255 -210 -473 -452 -611 -675 -19 -30 -37 -57 -40
-60 -15 -15 -168 -316 -201 -397 -5 -13 -14 -33 -19 -45 -47 -106 -141 -461
-156 -588 -3 -19 -7 -48 -10 -65 -19 -109 -26 -465 -11 -620 9 -100 24 -216
31 -235 3 -8 8 -33 11 -55 11 -76 44 -202 89 -336 305 -919 1062 -1615 2006
-1843 216 -52 386 -71 645 -71 228 0 385 14 550 49 39 8 82 17 95 19 49 9 247
70 340 104 99 37 334 148 430 203 403 233 779 610 1012 1015 159 276 284 616
332 905 49 291 56 597 21 880 -3 25 -8 52 -10 60 -2 8 -6 32 -10 53 -31 210
-135 528 -246 750 -184 367 -430 672 -770 951 -277 228 -709 440 -1071 525
-90 21 -133 30 -168 36 -19 3 -44 7 -56 9 -12 2 -43 7 -70 10 -27 4 -65 9 -84
12 -40 6 -455 15 -461 10z"/>
</g>
</svg>
